<mxfile host="app.diagrams.net" modified="2022-11-23T10:01:22.566Z" agent="5.0 (Windows NT 10.0; Win64; x64) AppleWebKit/537.36 (KHTML, like Gecko) Chrome/107.0.0.0 Safari/537.36" etag="yjZMn-UWvNiwrVpXzOaa" version="20.5.1" type="github">
  <diagram id="C5RBs43oDa-KdzZeNtuy" name="Page-1">
    <mxGraphModel dx="2249" dy="788" grid="1" gridSize="10" guides="1" tooltips="1" connect="1" arrows="1" fold="1" page="1" pageScale="1" pageWidth="827" pageHeight="1169" math="0" shadow="0">
      <root>
        <mxCell id="WIyWlLk6GJQsqaUBKTNV-0" />
        <mxCell id="WIyWlLk6GJQsqaUBKTNV-1" parent="WIyWlLk6GJQsqaUBKTNV-0" />
        <mxCell id="u9kDCgdxH4o3kyTRv_wG-122" value="" style="edgeStyle=orthogonalEdgeStyle;rounded=0;orthogonalLoop=1;jettySize=auto;html=1;" edge="1" parent="WIyWlLk6GJQsqaUBKTNV-1" source="u9kDCgdxH4o3kyTRv_wG-1" target="u9kDCgdxH4o3kyTRv_wG-116">
          <mxGeometry relative="1" as="geometry" />
        </mxCell>
        <mxCell id="u9kDCgdxH4o3kyTRv_wG-1" value="开始" style="rounded=1;whiteSpace=wrap;html=1;" vertex="1" parent="WIyWlLk6GJQsqaUBKTNV-1">
          <mxGeometry x="150" y="20" width="120" height="60" as="geometry" />
        </mxCell>
        <mxCell id="u9kDCgdxH4o3kyTRv_wG-42" value="" style="edgeStyle=orthogonalEdgeStyle;rounded=0;orthogonalLoop=1;jettySize=auto;html=1;" edge="1" parent="WIyWlLk6GJQsqaUBKTNV-1" source="u9kDCgdxH4o3kyTRv_wG-15" target="u9kDCgdxH4o3kyTRv_wG-19">
          <mxGeometry relative="1" as="geometry" />
        </mxCell>
        <mxCell id="u9kDCgdxH4o3kyTRv_wG-15" value="添加新节点" style="rounded=0;whiteSpace=wrap;html=1;" vertex="1" parent="WIyWlLk6GJQsqaUBKTNV-1">
          <mxGeometry x="310" y="315" width="120" height="60" as="geometry" />
        </mxCell>
        <mxCell id="u9kDCgdxH4o3kyTRv_wG-46" style="edgeStyle=orthogonalEdgeStyle;rounded=0;orthogonalLoop=1;jettySize=auto;html=1;entryX=1;entryY=0.5;entryDx=0;entryDy=0;" edge="1" parent="WIyWlLk6GJQsqaUBKTNV-1" source="u9kDCgdxH4o3kyTRv_wG-19" target="u9kDCgdxH4o3kyTRv_wG-107">
          <mxGeometry relative="1" as="geometry">
            <mxPoint x="300" y="700" as="targetPoint" />
            <Array as="points">
              <mxPoint x="540" y="770" />
              <mxPoint x="300" y="770" />
              <mxPoint x="300" y="810" />
            </Array>
          </mxGeometry>
        </mxCell>
        <mxCell id="u9kDCgdxH4o3kyTRv_wG-73" value="" style="edgeStyle=orthogonalEdgeStyle;rounded=0;orthogonalLoop=1;jettySize=auto;html=1;" edge="1" parent="WIyWlLk6GJQsqaUBKTNV-1" source="u9kDCgdxH4o3kyTRv_wG-19" target="u9kDCgdxH4o3kyTRv_wG-70">
          <mxGeometry relative="1" as="geometry" />
        </mxCell>
        <mxCell id="u9kDCgdxH4o3kyTRv_wG-19" value="是否为剪切节点" style="rhombus;whiteSpace=wrap;html=1;rounded=0;" vertex="1" parent="WIyWlLk6GJQsqaUBKTNV-1">
          <mxGeometry x="490" y="305" width="100" height="80" as="geometry" />
        </mxCell>
        <mxCell id="u9kDCgdxH4o3kyTRv_wG-66" value="" style="edgeStyle=orthogonalEdgeStyle;rounded=0;orthogonalLoop=1;jettySize=auto;html=1;" edge="1" parent="WIyWlLk6GJQsqaUBKTNV-1" source="u9kDCgdxH4o3kyTRv_wG-61">
          <mxGeometry relative="1" as="geometry">
            <mxPoint x="210" y="320" as="targetPoint" />
          </mxGeometry>
        </mxCell>
        <mxCell id="u9kDCgdxH4o3kyTRv_wG-61" value="操作节点" style="rounded=1;whiteSpace=wrap;html=1;strokeWidth=1;" vertex="1" parent="WIyWlLk6GJQsqaUBKTNV-1">
          <mxGeometry x="150" y="220" width="120" height="60" as="geometry" />
        </mxCell>
        <mxCell id="u9kDCgdxH4o3kyTRv_wG-74" value="" style="edgeStyle=orthogonalEdgeStyle;rounded=0;orthogonalLoop=1;jettySize=auto;html=1;" edge="1" parent="WIyWlLk6GJQsqaUBKTNV-1" source="u9kDCgdxH4o3kyTRv_wG-69" target="u9kDCgdxH4o3kyTRv_wG-15">
          <mxGeometry relative="1" as="geometry" />
        </mxCell>
        <mxCell id="u9kDCgdxH4o3kyTRv_wG-77" value="" style="edgeStyle=orthogonalEdgeStyle;rounded=0;orthogonalLoop=1;jettySize=auto;html=1;" edge="1" parent="WIyWlLk6GJQsqaUBKTNV-1" source="u9kDCgdxH4o3kyTRv_wG-69">
          <mxGeometry relative="1" as="geometry">
            <mxPoint x="210" y="430" as="targetPoint" />
          </mxGeometry>
        </mxCell>
        <mxCell id="u9kDCgdxH4o3kyTRv_wG-69" value="是否为添加操作" style="strokeWidth=1;html=1;shape=mxgraph.flowchart.decision;whiteSpace=wrap;" vertex="1" parent="WIyWlLk6GJQsqaUBKTNV-1">
          <mxGeometry x="160" y="310" width="100" height="70" as="geometry" />
        </mxCell>
        <mxCell id="u9kDCgdxH4o3kyTRv_wG-114" style="edgeStyle=orthogonalEdgeStyle;rounded=0;orthogonalLoop=1;jettySize=auto;html=1;" edge="1" parent="WIyWlLk6GJQsqaUBKTNV-1" source="u9kDCgdxH4o3kyTRv_wG-70">
          <mxGeometry relative="1" as="geometry">
            <mxPoint x="310" y="810" as="targetPoint" />
            <Array as="points">
              <mxPoint x="700" y="810" />
            </Array>
          </mxGeometry>
        </mxCell>
        <mxCell id="u9kDCgdxH4o3kyTRv_wG-70" value="清除本身/上下游的数据引用" style="whiteSpace=wrap;html=1;rounded=0;" vertex="1" parent="WIyWlLk6GJQsqaUBKTNV-1">
          <mxGeometry x="640" y="315" width="120" height="60" as="geometry" />
        </mxCell>
        <mxCell id="u9kDCgdxH4o3kyTRv_wG-75" value="是" style="text;html=1;align=center;verticalAlign=middle;resizable=0;points=[];autosize=1;strokeColor=none;fillColor=none;" vertex="1" parent="WIyWlLk6GJQsqaUBKTNV-1">
          <mxGeometry x="260" y="315" width="40" height="30" as="geometry" />
        </mxCell>
        <mxCell id="u9kDCgdxH4o3kyTRv_wG-78" value="否" style="text;html=1;align=center;verticalAlign=middle;resizable=0;points=[];autosize=1;strokeColor=none;fillColor=none;" vertex="1" parent="WIyWlLk6GJQsqaUBKTNV-1">
          <mxGeometry x="220" y="395" width="40" height="30" as="geometry" />
        </mxCell>
        <mxCell id="u9kDCgdxH4o3kyTRv_wG-81" value="" style="edgeStyle=orthogonalEdgeStyle;rounded=0;orthogonalLoop=1;jettySize=auto;html=1;" edge="1" parent="WIyWlLk6GJQsqaUBKTNV-1" source="u9kDCgdxH4o3kyTRv_wG-79" target="u9kDCgdxH4o3kyTRv_wG-80">
          <mxGeometry relative="1" as="geometry" />
        </mxCell>
        <mxCell id="u9kDCgdxH4o3kyTRv_wG-84" value="" style="edgeStyle=orthogonalEdgeStyle;rounded=0;orthogonalLoop=1;jettySize=auto;html=1;" edge="1" parent="WIyWlLk6GJQsqaUBKTNV-1" source="u9kDCgdxH4o3kyTRv_wG-79">
          <mxGeometry relative="1" as="geometry">
            <mxPoint x="210" y="555" as="targetPoint" />
          </mxGeometry>
        </mxCell>
        <mxCell id="u9kDCgdxH4o3kyTRv_wG-79" value="是否为剪切操作" style="strokeWidth=1;html=1;shape=mxgraph.flowchart.decision;whiteSpace=wrap;" vertex="1" parent="WIyWlLk6GJQsqaUBKTNV-1">
          <mxGeometry x="160" y="430" width="100" height="70" as="geometry" />
        </mxCell>
        <mxCell id="u9kDCgdxH4o3kyTRv_wG-87" value="" style="edgeStyle=orthogonalEdgeStyle;rounded=0;orthogonalLoop=1;jettySize=auto;html=1;" edge="1" parent="WIyWlLk6GJQsqaUBKTNV-1" source="u9kDCgdxH4o3kyTRv_wG-80" target="u9kDCgdxH4o3kyTRv_wG-86">
          <mxGeometry relative="1" as="geometry" />
        </mxCell>
        <mxCell id="u9kDCgdxH4o3kyTRv_wG-80" value="剪切节点" style="whiteSpace=wrap;html=1;strokeWidth=1;" vertex="1" parent="WIyWlLk6GJQsqaUBKTNV-1">
          <mxGeometry x="-30" y="435" width="120" height="60" as="geometry" />
        </mxCell>
        <mxCell id="u9kDCgdxH4o3kyTRv_wG-82" value="是" style="text;html=1;align=center;verticalAlign=middle;resizable=0;points=[];autosize=1;strokeColor=none;fillColor=none;" vertex="1" parent="WIyWlLk6GJQsqaUBKTNV-1">
          <mxGeometry x="110" y="430" width="40" height="30" as="geometry" />
        </mxCell>
        <mxCell id="u9kDCgdxH4o3kyTRv_wG-85" value="否" style="text;html=1;align=center;verticalAlign=middle;resizable=0;points=[];autosize=1;strokeColor=none;fillColor=none;" vertex="1" parent="WIyWlLk6GJQsqaUBKTNV-1">
          <mxGeometry x="210" y="515" width="40" height="30" as="geometry" />
        </mxCell>
        <mxCell id="u9kDCgdxH4o3kyTRv_wG-88" style="edgeStyle=orthogonalEdgeStyle;rounded=0;orthogonalLoop=1;jettySize=auto;html=1;entryX=0;entryY=0.5;entryDx=0;entryDy=0;" edge="1" parent="WIyWlLk6GJQsqaUBKTNV-1" source="u9kDCgdxH4o3kyTRv_wG-86" target="u9kDCgdxH4o3kyTRv_wG-61">
          <mxGeometry relative="1" as="geometry">
            <Array as="points">
              <mxPoint x="-150" y="250" />
            </Array>
          </mxGeometry>
        </mxCell>
        <mxCell id="u9kDCgdxH4o3kyTRv_wG-86" value="将该节点数据放置剪切面板" style="whiteSpace=wrap;html=1;rounded=0;" vertex="1" parent="WIyWlLk6GJQsqaUBKTNV-1">
          <mxGeometry x="-210" y="435" width="120" height="60" as="geometry" />
        </mxCell>
        <mxCell id="u9kDCgdxH4o3kyTRv_wG-89" value="是" style="text;html=1;align=center;verticalAlign=middle;resizable=0;points=[];autosize=1;strokeColor=none;fillColor=none;" vertex="1" parent="WIyWlLk6GJQsqaUBKTNV-1">
          <mxGeometry x="580" y="315" width="40" height="30" as="geometry" />
        </mxCell>
        <mxCell id="u9kDCgdxH4o3kyTRv_wG-94" value="" style="edgeStyle=orthogonalEdgeStyle;rounded=0;orthogonalLoop=1;jettySize=auto;html=1;" edge="1" parent="WIyWlLk6GJQsqaUBKTNV-1" source="u9kDCgdxH4o3kyTRv_wG-92" target="u9kDCgdxH4o3kyTRv_wG-80">
          <mxGeometry relative="1" as="geometry" />
        </mxCell>
        <mxCell id="u9kDCgdxH4o3kyTRv_wG-92" value="数据修改后更新剪切节点" style="whiteSpace=wrap;html=1;strokeWidth=1;" vertex="1" parent="WIyWlLk6GJQsqaUBKTNV-1">
          <mxGeometry x="-30" y="555" width="120" height="60" as="geometry" />
        </mxCell>
        <mxCell id="u9kDCgdxH4o3kyTRv_wG-106" value="" style="edgeStyle=orthogonalEdgeStyle;rounded=0;orthogonalLoop=1;jettySize=auto;html=1;" edge="1" parent="WIyWlLk6GJQsqaUBKTNV-1" source="u9kDCgdxH4o3kyTRv_wG-103" target="u9kDCgdxH4o3kyTRv_wG-105">
          <mxGeometry relative="1" as="geometry" />
        </mxCell>
        <mxCell id="u9kDCgdxH4o3kyTRv_wG-127" value="" style="edgeStyle=orthogonalEdgeStyle;rounded=0;orthogonalLoop=1;jettySize=auto;html=1;" edge="1" parent="WIyWlLk6GJQsqaUBKTNV-1" source="u9kDCgdxH4o3kyTRv_wG-103" target="u9kDCgdxH4o3kyTRv_wG-92">
          <mxGeometry relative="1" as="geometry" />
        </mxCell>
        <mxCell id="u9kDCgdxH4o3kyTRv_wG-103" value="是否修改操作" style="strokeWidth=1;html=1;shape=mxgraph.flowchart.decision;whiteSpace=wrap;" vertex="1" parent="WIyWlLk6GJQsqaUBKTNV-1">
          <mxGeometry x="160" y="552" width="100" height="65" as="geometry" />
        </mxCell>
        <mxCell id="u9kDCgdxH4o3kyTRv_wG-108" value="" style="edgeStyle=orthogonalEdgeStyle;rounded=0;orthogonalLoop=1;jettySize=auto;html=1;" edge="1" parent="WIyWlLk6GJQsqaUBKTNV-1" source="u9kDCgdxH4o3kyTRv_wG-105" target="u9kDCgdxH4o3kyTRv_wG-107">
          <mxGeometry relative="1" as="geometry" />
        </mxCell>
        <mxCell id="u9kDCgdxH4o3kyTRv_wG-105" value="删除节点" style="whiteSpace=wrap;html=1;strokeWidth=1;" vertex="1" parent="WIyWlLk6GJQsqaUBKTNV-1">
          <mxGeometry x="150" y="670" width="120" height="60" as="geometry" />
        </mxCell>
        <mxCell id="u9kDCgdxH4o3kyTRv_wG-110" value="" style="edgeStyle=orthogonalEdgeStyle;rounded=0;orthogonalLoop=1;jettySize=auto;html=1;" edge="1" parent="WIyWlLk6GJQsqaUBKTNV-1" source="u9kDCgdxH4o3kyTRv_wG-107" target="u9kDCgdxH4o3kyTRv_wG-109">
          <mxGeometry relative="1" as="geometry" />
        </mxCell>
        <mxCell id="u9kDCgdxH4o3kyTRv_wG-107" value="节点渲染" style="rounded=0;whiteSpace=wrap;html=1;" vertex="1" parent="WIyWlLk6GJQsqaUBKTNV-1">
          <mxGeometry x="150" y="780" width="120" height="60" as="geometry" />
        </mxCell>
        <mxCell id="u9kDCgdxH4o3kyTRv_wG-109" value="流程渲染完成" style="rounded=1;whiteSpace=wrap;html=1;" vertex="1" parent="WIyWlLk6GJQsqaUBKTNV-1">
          <mxGeometry x="150" y="880" width="120" height="60" as="geometry" />
        </mxCell>
        <mxCell id="u9kDCgdxH4o3kyTRv_wG-115" value="否" style="text;html=1;align=center;verticalAlign=middle;resizable=0;points=[];autosize=1;strokeColor=none;fillColor=none;" vertex="1" parent="WIyWlLk6GJQsqaUBKTNV-1">
          <mxGeometry x="540" y="510" width="40" height="30" as="geometry" />
        </mxCell>
        <mxCell id="u9kDCgdxH4o3kyTRv_wG-118" style="edgeStyle=orthogonalEdgeStyle;rounded=0;orthogonalLoop=1;jettySize=auto;html=1;entryX=0;entryY=0.5;entryDx=0;entryDy=0;" edge="1" parent="WIyWlLk6GJQsqaUBKTNV-1" source="u9kDCgdxH4o3kyTRv_wG-116" target="u9kDCgdxH4o3kyTRv_wG-107">
          <mxGeometry relative="1" as="geometry">
            <Array as="points">
              <mxPoint x="-280" y="150" />
              <mxPoint x="-280" y="810" />
            </Array>
          </mxGeometry>
        </mxCell>
        <mxCell id="u9kDCgdxH4o3kyTRv_wG-123" value="" style="edgeStyle=orthogonalEdgeStyle;rounded=0;orthogonalLoop=1;jettySize=auto;html=1;" edge="1" parent="WIyWlLk6GJQsqaUBKTNV-1" source="u9kDCgdxH4o3kyTRv_wG-116" target="u9kDCgdxH4o3kyTRv_wG-61">
          <mxGeometry relative="1" as="geometry" />
        </mxCell>
        <mxCell id="u9kDCgdxH4o3kyTRv_wG-116" value="是否流程初始化" style="strokeWidth=1;html=1;shape=mxgraph.flowchart.decision;whiteSpace=wrap;" vertex="1" parent="WIyWlLk6GJQsqaUBKTNV-1">
          <mxGeometry x="160" y="120" width="100" height="60" as="geometry" />
        </mxCell>
        <mxCell id="u9kDCgdxH4o3kyTRv_wG-119" value="是" style="text;html=1;align=center;verticalAlign=middle;resizable=0;points=[];autosize=1;strokeColor=none;fillColor=none;" vertex="1" parent="WIyWlLk6GJQsqaUBKTNV-1">
          <mxGeometry x="-290" y="345" width="40" height="30" as="geometry" />
        </mxCell>
        <mxCell id="u9kDCgdxH4o3kyTRv_wG-124" value="否" style="text;html=1;align=center;verticalAlign=middle;resizable=0;points=[];autosize=1;strokeColor=none;fillColor=none;" vertex="1" parent="WIyWlLk6GJQsqaUBKTNV-1">
          <mxGeometry x="210" y="175" width="40" height="30" as="geometry" />
        </mxCell>
        <mxCell id="u9kDCgdxH4o3kyTRv_wG-125" value="否" style="text;html=1;align=center;verticalAlign=middle;resizable=0;points=[];autosize=1;strokeColor=none;fillColor=none;" vertex="1" parent="WIyWlLk6GJQsqaUBKTNV-1">
          <mxGeometry x="210" y="630" width="40" height="30" as="geometry" />
        </mxCell>
        <mxCell id="u9kDCgdxH4o3kyTRv_wG-128" value="是" style="text;html=1;align=center;verticalAlign=middle;resizable=0;points=[];autosize=1;strokeColor=none;fillColor=none;" vertex="1" parent="WIyWlLk6GJQsqaUBKTNV-1">
          <mxGeometry x="100" y="552" width="40" height="30" as="geometry" />
        </mxCell>
      </root>
    </mxGraphModel>
  </diagram>
</mxfile>
